<?xml version="1.0" encoding="utf-8"?>
<!-- Generator: Adobe Illustrator 24.1.2, SVG Export Plug-In . SVG Version: 6.00 Build 0)  -->
<svg version="1.1" id="Слой_1" xmlns="http://www.w3.org/2000/svg" xmlns:xlink="http://www.w3.org/1999/xlink" x="0px" y="0px"
	 viewBox="0 0 10.3 20.8" style="enable-background:new 0 0 10.3 20.8;" xml:space="preserve">
<style type="text/css">
	.st0{fill:#ED7117;}
</style>
<text transform="matrix(1 0 0 1 11.9999 8.6362)" style="font-family:'MyriadPro-Regular'; font-size:12px;">  </text>
<g>
	<path class="st0" d="M5,20.7c-2.8-0.3-5-2.8-5-5.6L0.1,3.4c0-2.1,1.8-3.7,4-3.4c2.1,0.3,3.8,2.1,3.8,4.3L7.8,14.9
		c0,1.4-1.1,2.4-2.5,2.2c-1.4-0.1-2.5-1.4-2.5-2.8L2.9,4.1c0-0.4,0.3-0.6,0.7-0.6s0.6,0.4,0.6,0.7L4.1,14.5c0,0.7,0.5,1.2,1.2,1.3
		c0.6,0.1,1.2-0.4,1.2-1L6.6,4.1c0-1.4-1.1-2.7-2.6-2.8C2.6,1.1,1.4,2.1,1.4,3.5L1.3,15.3c0,2.1,1.6,4,3.7,4.2s3.8-1.3,3.8-3.4
		L9,4.3c0-0.4,0.2-0.6,0.6-0.6c0.4,0,0.7,0.3,0.7,0.7v0.1l-0.1,11.7C10.1,19,7.8,21,5,20.7z"/>
</g>
</svg>
