<svg width="22" height="22" viewBox="0 0 22 22" fill="none" xmlns="http://www.w3.org/2000/svg">
<path fill-rule="evenodd" clip-rule="evenodd" d="M11 21C16.5228 21 21 16.5228 21 11C21 5.47715 16.5228 1 11 1C5.47715 1 1 5.47715 1 11C1 16.5228 5.47715 21 11 21ZM11 22C17.0751 22 22 17.0751 22 11C22 4.92487 17.0751 0 11 0C4.92487 0 0 4.92487 0 11C0 17.0751 4.92487 22 11 22Z" fill="#ED7117"/>
<path d="M7.50725 16.2684C7.07525 16.2684 6.65525 16.2204 6.24725 16.1244C5.84725 16.0284 5.48325 15.8804 5.15525 15.6804C5.05125 15.6164 4.97925 15.5404 4.93925 15.4524C4.90725 15.3724 4.89925 15.2884 4.91525 15.2004C4.93925 15.1124 4.97925 15.0324 5.03525 14.9604C5.09925 14.8964 5.17125 14.8524 5.25125 14.8284C5.33925 14.8124 5.42725 14.8324 5.51525 14.8884C5.86725 15.0884 6.20325 15.2244 6.52325 15.2964C6.84325 15.3684 7.14725 15.4044 7.43525 15.4044C8.00325 15.4044 8.42725 15.2564 8.70725 14.9604C8.99525 14.6724 9.13925 14.2484 9.13925 13.6884V12.3924H9.24725C9.13525 12.8404 8.88325 13.1964 8.49125 13.4604C8.10725 13.7244 7.65925 13.8564 7.14725 13.8564C6.61925 13.8564 6.15925 13.7364 5.76725 13.4964C5.37525 13.2484 5.07125 12.9084 4.85525 12.4764C4.63925 12.0364 4.53125 11.5284 4.53125 10.9524C4.53125 10.5124 4.59125 10.1164 4.71125 9.76436C4.83925 9.40436 5.01525 9.10036 5.23925 8.85236C5.47125 8.59636 5.74725 8.40036 6.06725 8.26436C6.38725 8.12036 6.74725 8.04836 7.14725 8.04836C7.66725 8.04836 8.11925 8.18036 8.50325 8.44436C8.88725 8.70836 9.13525 9.06436 9.24725 9.51236L9.11525 9.68036V8.62436C9.11525 8.44036 9.16325 8.30436 9.25925 8.21636C9.35525 8.12036 9.49125 8.07236 9.66725 8.07236C9.83525 8.07236 9.96725 8.12036 10.0633 8.21636C10.1593 8.30436 10.2073 8.44036 10.2073 8.62436V13.5444C10.2073 14.4484 9.97525 15.1284 9.51125 15.5844C9.05525 16.0404 8.38725 16.2684 7.50725 16.2684ZM7.38725 12.9924C7.74725 12.9924 8.05525 12.9124 8.31125 12.7524C8.57525 12.5844 8.77525 12.3484 8.91125 12.0444C9.05525 11.7324 9.12725 11.3684 9.12725 10.9524C9.12725 10.3204 8.97125 9.82436 8.65925 9.46436C8.34725 9.09636 7.92325 8.91236 7.38725 8.91236C7.02725 8.91236 6.71525 8.99636 6.45125 9.16436C6.19525 9.32436 5.99525 9.55636 5.85125 9.86036C5.70725 10.1644 5.63525 10.5284 5.63525 10.9524C5.63525 11.5764 5.79125 12.0724 6.10325 12.4404C6.42325 12.8084 6.85125 12.9924 7.38725 12.9924Z" fill="#ED7117"/>
<path d="M12.4974 14.0604C12.3294 14.0604 12.1974 14.0084 12.1014 13.9044C12.0054 13.8004 11.9574 13.6564 11.9574 13.4724V8.68436C11.9574 8.49236 12.0054 8.34836 12.1014 8.25236C12.1974 8.14836 12.3294 8.09636 12.4974 8.09636C12.6734 8.09636 12.8094 8.14836 12.9054 8.25236C13.0014 8.34836 13.0494 8.49236 13.0494 8.68436V13.4724C13.0494 13.6564 13.0014 13.8004 12.9054 13.9044C12.8174 14.0084 12.6814 14.0604 12.4974 14.0604ZM12.4974 6.80036C12.2814 6.80036 12.1094 6.74436 11.9814 6.63236C11.8614 6.51236 11.8014 6.35636 11.8014 6.16436C11.8014 5.95636 11.8614 5.80036 11.9814 5.69636C12.1094 5.58436 12.2814 5.52836 12.4974 5.52836C12.7294 5.52836 12.9014 5.58436 13.0134 5.69636C13.1334 5.80036 13.1934 5.95636 13.1934 6.16436C13.1934 6.35636 13.1334 6.51236 13.0134 6.63236C12.9014 6.74436 12.7294 6.80036 12.4974 6.80036Z" fill="#ED7117"/>
<path d="M15.693 14.0844C15.517 14.0844 15.381 14.0364 15.285 13.9404C15.189 13.8444 15.141 13.7044 15.141 13.5204V8.99636H14.421C14.277 8.99636 14.165 8.96036 14.085 8.88836C14.005 8.80836 13.965 8.70436 13.965 8.57636C13.965 8.44036 14.005 8.33636 14.085 8.26436C14.165 8.19236 14.277 8.15636 14.421 8.15636H15.441L15.141 8.44436V8.00036C15.141 7.22436 15.329 6.63636 15.705 6.23636C16.089 5.82836 16.649 5.59236 17.385 5.52836L17.757 5.50436C17.877 5.48836 17.973 5.50836 18.045 5.56436C18.117 5.61236 18.165 5.67636 18.189 5.75636C18.213 5.83636 18.213 5.92036 18.189 6.00836C18.173 6.08836 18.137 6.16036 18.081 6.22436C18.025 6.28836 17.953 6.32436 17.865 6.33236L17.601 6.34436C17.121 6.38436 16.773 6.52836 16.557 6.77636C16.341 7.01636 16.233 7.37636 16.233 7.85636V8.33636L16.077 8.15636H17.457C17.609 8.15636 17.725 8.19236 17.805 8.26436C17.885 8.33636 17.925 8.44036 17.925 8.57636C17.925 8.70436 17.885 8.80836 17.805 8.88836C17.725 8.96036 17.609 8.99636 17.457 8.99636H16.233V13.5204C16.233 13.8964 16.053 14.0844 15.693 14.0844Z" fill="#ED7117"/>
</svg>
