<svg width="104" height="22" viewBox="0 0 104 22" fill="none" xmlns="http://www.w3.org/2000/svg">
<path d="M27.032 16.112C26.84 16.112 26.6907 16.0587 26.584 15.952C26.4773 15.8347 26.424 15.6747 26.424 15.472V5.248C26.424 5.03467 26.4773 4.87467 26.584 4.768C26.6907 4.66133 26.84 4.608 27.032 4.608C27.2027 4.608 27.336 4.64533 27.432 4.72C27.5387 4.784 27.6347 4.896 27.72 5.056L32.104 13.312H31.624L35.992 5.056C36.0773 4.896 36.168 4.784 36.264 4.72C36.36 4.64533 36.4987 4.608 36.68 4.608C36.8613 4.608 37.0053 4.66133 37.112 4.768C37.2187 4.87467 37.272 5.03467 37.272 5.248V15.472C37.272 15.6747 37.2187 15.8347 37.112 15.952C37.016 16.0587 36.8667 16.112 36.664 16.112C36.472 16.112 36.3227 16.0587 36.216 15.952C36.1093 15.8347 36.056 15.6747 36.056 15.472V6.48H36.44L32.44 13.984C32.3653 14.1227 32.2853 14.224 32.2 14.288C32.1253 14.3413 32.0133 14.368 31.864 14.368C31.7147 14.368 31.5973 14.336 31.512 14.272C31.4267 14.208 31.352 14.112 31.288 13.984L27.24 6.464H27.624V15.472C27.624 15.6747 27.5707 15.8347 27.464 15.952C27.368 16.0587 27.224 16.112 27.032 16.112ZM43.4075 16.144C42.5862 16.144 41.8768 15.984 41.2795 15.664C40.6928 15.3333 40.2342 14.8693 39.9035 14.272C39.5835 13.6747 39.4235 12.96 39.4235 12.128C39.4235 11.3173 39.5835 10.6133 39.9035 10.016C40.2235 9.408 40.6608 8.93333 41.2155 8.592C41.7808 8.25067 42.4315 8.08 43.1675 8.08C43.6902 8.08 44.1595 8.17067 44.5755 8.352C44.9915 8.52267 45.3435 8.77333 45.6315 9.104C45.9302 9.43467 46.1542 9.83467 46.3035 10.304C46.4635 10.7733 46.5435 11.3013 46.5435 11.888C46.5435 12.0587 46.4955 12.1867 46.3995 12.272C46.3035 12.3467 46.1648 12.384 45.9835 12.384H40.4155V11.536H45.6795L45.4235 11.744C45.4235 11.168 45.3382 10.6827 45.1675 10.288C44.9968 9.88267 44.7462 9.57333 44.4155 9.36C44.0955 9.14667 43.6902 9.04 43.1995 9.04C42.6555 9.04 42.1915 9.168 41.8075 9.424C41.4342 9.66933 41.1515 10.016 40.9595 10.464C40.7675 10.9013 40.6715 11.4133 40.6715 12V12.096C40.6715 13.0773 40.9062 13.824 41.3755 14.336C41.8555 14.848 42.5328 15.104 43.4075 15.104C43.7702 15.104 44.1275 15.056 44.4795 14.96C44.8422 14.864 45.1942 14.704 45.5355 14.48C45.6848 14.384 45.8182 14.3413 45.9355 14.352C46.0635 14.352 46.1648 14.3893 46.2395 14.464C46.3142 14.528 46.3622 14.6133 46.3835 14.72C46.4155 14.816 46.4048 14.9227 46.3515 15.04C46.3088 15.1573 46.2182 15.2587 46.0795 15.344C45.7275 15.6 45.3115 15.7973 44.8315 15.936C44.3515 16.0747 43.8768 16.144 43.4075 16.144ZM51.0431 16.144C50.5631 16.144 50.0778 16.0853 49.5871 15.968C49.1071 15.8507 48.6591 15.648 48.2431 15.36C48.1365 15.2853 48.0618 15.2 48.0191 15.104C47.9765 14.9973 47.9605 14.896 47.9711 14.8C47.9925 14.6933 48.0351 14.6027 48.0991 14.528C48.1738 14.4533 48.2591 14.4107 48.3551 14.4C48.4618 14.3787 48.5791 14.4 48.7071 14.464C49.1231 14.72 49.5231 14.9013 49.9071 15.008C50.3018 15.104 50.6911 15.152 51.0751 15.152C51.6831 15.152 52.1418 15.04 52.4511 14.816C52.7605 14.592 52.9151 14.288 52.9151 13.904C52.9151 13.6053 52.8138 13.3707 52.6111 13.2C52.4085 13.0187 52.0885 12.88 51.6511 12.784L50.1951 12.464C49.5231 12.3253 49.0218 12.0853 48.6911 11.744C48.3711 11.4027 48.2111 10.96 48.2111 10.416C48.2111 9.936 48.3338 9.52533 48.5791 9.184C48.8351 8.832 49.1925 8.56 49.6511 8.368C50.1098 8.176 50.6431 8.08 51.2511 8.08C51.7205 8.08 52.1631 8.144 52.5791 8.272C53.0058 8.38933 53.3898 8.58133 53.7311 8.848C53.8378 8.92267 53.9071 9.01333 53.9391 9.12C53.9818 9.216 53.9871 9.31733 53.9551 9.424C53.9338 9.52 53.8858 9.60533 53.8111 9.68C53.7365 9.744 53.6458 9.78133 53.5391 9.792C53.4325 9.80267 53.3205 9.77067 53.2031 9.696C52.8831 9.48267 52.5578 9.328 52.2271 9.232C51.8965 9.12533 51.5711 9.072 51.2511 9.072C50.6538 9.072 50.2005 9.18933 49.8911 9.424C49.5818 9.65867 49.4271 9.968 49.4271 10.352C49.4271 10.6507 49.5231 10.896 49.7151 11.088C49.9071 11.28 50.2058 11.4187 50.6111 11.504L52.0671 11.808C52.7605 11.9573 53.2778 12.1973 53.6191 12.528C53.9711 12.848 54.1471 13.2853 54.1471 13.84C54.1471 14.544 53.8645 15.104 53.2991 15.52C52.7338 15.936 51.9818 16.144 51.0431 16.144ZM58.7463 16.144C58.2663 16.144 57.7809 16.0853 57.2903 15.968C56.8103 15.8507 56.3623 15.648 55.9463 15.36C55.8396 15.2853 55.7649 15.2 55.7223 15.104C55.6796 14.9973 55.6636 14.896 55.6743 14.8C55.6956 14.6933 55.7383 14.6027 55.8023 14.528C55.8769 14.4533 55.9623 14.4107 56.0583 14.4C56.1649 14.3787 56.2823 14.4 56.4103 14.464C56.8263 14.72 57.2263 14.9013 57.6103 15.008C58.0049 15.104 58.3943 15.152 58.7783 15.152C59.3863 15.152 59.8449 15.04 60.1543 14.816C60.4636 14.592 60.6183 14.288 60.6183 13.904C60.6183 13.6053 60.5169 13.3707 60.3143 13.2C60.1116 13.0187 59.7916 12.88 59.3543 12.784L57.8983 12.464C57.2263 12.3253 56.7249 12.0853 56.3943 11.744C56.0743 11.4027 55.9143 10.96 55.9143 10.416C55.9143 9.936 56.0369 9.52533 56.2823 9.184C56.5383 8.832 56.8956 8.56 57.3543 8.368C57.8129 8.176 58.3463 8.08 58.9543 8.08C59.4236 8.08 59.8663 8.144 60.2823 8.272C60.7089 8.38933 61.0929 8.58133 61.4343 8.848C61.5409 8.92267 61.6103 9.01333 61.6423 9.12C61.6849 9.216 61.6903 9.31733 61.6583 9.424C61.6369 9.52 61.5889 9.60533 61.5143 9.68C61.4396 9.744 61.3489 9.78133 61.2423 9.792C61.1356 9.80267 61.0236 9.77067 60.9063 9.696C60.5863 9.48267 60.2609 9.328 59.9303 9.232C59.5996 9.12533 59.2743 9.072 58.9543 9.072C58.3569 9.072 57.9036 9.18933 57.5943 9.424C57.2849 9.65867 57.1303 9.968 57.1303 10.352C57.1303 10.6507 57.2263 10.896 57.4183 11.088C57.6103 11.28 57.9089 11.4187 58.3143 11.504L59.7703 11.808C60.4636 11.9573 60.9809 12.1973 61.3223 12.528C61.6743 12.848 61.8503 13.2853 61.8503 13.84C61.8503 14.544 61.5676 15.104 61.0023 15.52C60.4369 15.936 59.6849 16.144 58.7463 16.144ZM67.3294 16.144C66.508 16.144 65.7987 15.984 65.2014 15.664C64.6147 15.3333 64.156 14.8693 63.8254 14.272C63.5054 13.6747 63.3454 12.96 63.3454 12.128C63.3454 11.3173 63.5054 10.6133 63.8254 10.016C64.1454 9.408 64.5827 8.93333 65.1374 8.592C65.7027 8.25067 66.3534 8.08 67.0894 8.08C67.612 8.08 68.0814 8.17067 68.4974 8.352C68.9134 8.52267 69.2654 8.77333 69.5534 9.104C69.852 9.43467 70.076 9.83467 70.2254 10.304C70.3854 10.7733 70.4654 11.3013 70.4654 11.888C70.4654 12.0587 70.4174 12.1867 70.3214 12.272C70.2254 12.3467 70.0867 12.384 69.9054 12.384H64.3374V11.536H69.6014L69.3454 11.744C69.3454 11.168 69.26 10.6827 69.0894 10.288C68.9187 9.88267 68.668 9.57333 68.3374 9.36C68.0174 9.14667 67.612 9.04 67.1214 9.04C66.5774 9.04 66.1134 9.168 65.7294 9.424C65.356 9.66933 65.0734 10.016 64.8814 10.464C64.6894 10.9013 64.5934 11.4133 64.5934 12V12.096C64.5934 13.0773 64.828 13.824 65.2974 14.336C65.7774 14.848 66.4547 15.104 67.3294 15.104C67.692 15.104 68.0494 15.056 68.4014 14.96C68.764 14.864 69.116 14.704 69.4574 14.48C69.6067 14.384 69.74 14.3413 69.8574 14.352C69.9854 14.352 70.0867 14.3893 70.1614 14.464C70.236 14.528 70.284 14.6133 70.3054 14.72C70.3374 14.816 70.3267 14.9227 70.2734 15.04C70.2307 15.1573 70.14 15.2587 70.0014 15.344C69.6494 15.6 69.2334 15.7973 68.7534 15.936C68.2734 16.0747 67.7987 16.144 67.3294 16.144ZM72.981 16.112C72.7677 16.112 72.6077 16.0533 72.501 15.936C72.3943 15.8187 72.341 15.6533 72.341 15.44V8.768C72.341 8.55467 72.3943 8.39467 72.501 8.288C72.6077 8.17067 72.7623 8.112 72.965 8.112C73.1677 8.112 73.3223 8.17067 73.429 8.288C73.5463 8.39467 73.605 8.55467 73.605 8.768V10.144L73.429 9.952C73.653 9.33333 74.0157 8.86933 74.517 8.56C75.029 8.24 75.6157 8.08 76.277 8.08C76.8957 8.08 77.4077 8.192 77.813 8.416C78.229 8.64 78.5383 8.98133 78.741 9.44C78.9437 9.888 79.045 10.4587 79.045 11.152V15.44C79.045 15.6533 78.9863 15.8187 78.869 15.936C78.7623 16.0533 78.6077 16.112 78.405 16.112C78.1917 16.112 78.0263 16.0533 77.909 15.936C77.8023 15.8187 77.749 15.6533 77.749 15.44V11.232C77.749 10.5067 77.605 9.97867 77.317 9.648C77.0397 9.30667 76.5917 9.136 75.973 9.136C75.2583 9.136 74.6877 9.36 74.261 9.808C73.845 10.2453 73.637 10.832 73.637 11.568V15.44C73.637 15.888 73.4183 16.112 72.981 16.112ZM84.8748 19.024C84.3094 19.024 83.7548 18.9547 83.2108 18.816C82.6774 18.688 82.1921 18.48 81.7548 18.192C81.6268 18.1173 81.5414 18.0267 81.4988 17.92C81.4668 17.8133 81.4614 17.7067 81.4828 17.6C81.5041 17.504 81.5521 17.4133 81.6268 17.328C81.7014 17.2533 81.7868 17.2053 81.8828 17.184C81.9894 17.1627 82.0961 17.1787 82.2028 17.232C82.6721 17.52 83.1201 17.7173 83.5468 17.824C83.9734 17.9307 84.3948 17.984 84.8108 17.984C85.5681 17.984 86.1388 17.7813 86.5228 17.376C86.9174 16.9707 87.1148 16.384 87.1148 15.616V13.808H87.2748C87.1148 14.4267 86.7734 14.9173 86.2508 15.28C85.7388 15.6427 85.1361 15.824 84.4427 15.824C83.7281 15.824 83.1094 15.664 82.5868 15.344C82.0641 15.0133 81.6588 14.5547 81.3708 13.968C81.0934 13.3813 80.9548 12.704 80.9548 11.936C80.9548 11.36 81.0348 10.8373 81.1948 10.368C81.3548 9.888 81.5841 9.48267 81.8828 9.152C82.1921 8.81067 82.5601 8.54933 82.9868 8.368C83.4241 8.176 83.9094 8.08 84.4427 8.08C85.1468 8.08 85.7548 8.26133 86.2668 8.624C86.7788 8.976 87.1094 9.456 87.2588 10.064L87.0988 10.256V8.768C87.0988 8.55467 87.1521 8.39467 87.2588 8.288C87.3761 8.17067 87.5361 8.112 87.7388 8.112C87.9521 8.112 88.1121 8.17067 88.2188 8.288C88.3254 8.39467 88.3788 8.55467 88.3788 8.768V15.44C88.3788 16.624 88.0801 17.5147 87.4828 18.112C86.8961 18.72 86.0268 19.024 84.8748 19.024ZM84.6828 14.768C85.1841 14.768 85.6161 14.656 85.9788 14.432C86.3414 14.1973 86.6188 13.8667 86.8108 13.44C87.0134 13.0133 87.1148 12.512 87.1148 11.936C87.1148 11.072 86.8961 10.3893 86.4588 9.888C86.0214 9.376 85.4294 9.12 84.6828 9.12C84.1921 9.12 83.7654 9.23733 83.4028 9.472C83.0401 9.696 82.7574 10.0213 82.5548 10.448C82.3628 10.864 82.2668 11.36 82.2668 11.936C82.2668 12.8 82.4854 13.488 82.9228 14C83.3601 14.512 83.9468 14.768 84.6828 14.768ZM94.3138 16.144C93.4924 16.144 92.7831 15.984 92.1858 15.664C91.5991 15.3333 91.1404 14.8693 90.8098 14.272C90.4898 13.6747 90.3298 12.96 90.3298 12.128C90.3298 11.3173 90.4898 10.6133 90.8098 10.016C91.1298 9.408 91.5671 8.93333 92.1218 8.592C92.6871 8.25067 93.3378 8.08 94.0738 8.08C94.5964 8.08 95.0658 8.17067 95.4818 8.352C95.8978 8.52267 96.2498 8.77333 96.5378 9.104C96.8364 9.43467 97.0604 9.83467 97.2098 10.304C97.3698 10.7733 97.4498 11.3013 97.4498 11.888C97.4498 12.0587 97.4018 12.1867 97.3058 12.272C97.2098 12.3467 97.0711 12.384 96.8898 12.384H91.3218V11.536H96.5858L96.3298 11.744C96.3298 11.168 96.2444 10.6827 96.0738 10.288C95.9031 9.88267 95.6524 9.57333 95.3218 9.36C95.0018 9.14667 94.5964 9.04 94.1058 9.04C93.5618 9.04 93.0978 9.168 92.7138 9.424C92.3404 9.66933 92.0578 10.016 91.8658 10.464C91.6738 10.9013 91.5778 11.4133 91.5778 12V12.096C91.5778 13.0773 91.8124 13.824 92.2818 14.336C92.7618 14.848 93.4391 15.104 94.3138 15.104C94.6764 15.104 95.0338 15.056 95.3858 14.96C95.7484 14.864 96.1004 14.704 96.4418 14.48C96.5911 14.384 96.7244 14.3413 96.8418 14.352C96.9698 14.352 97.0711 14.3893 97.1458 14.464C97.2204 14.528 97.2684 14.6133 97.2898 14.72C97.3218 14.816 97.3111 14.9227 97.2578 15.04C97.2151 15.1573 97.1244 15.2587 96.9858 15.344C96.6338 15.6 96.2178 15.7973 95.7378 15.936C95.2578 16.0747 94.7831 16.144 94.3138 16.144ZM99.9814 16.112C99.768 16.112 99.6027 16.0533 99.4854 15.936C99.3787 15.8187 99.3254 15.6533 99.3254 15.44V8.768C99.3254 8.55467 99.3787 8.39467 99.4854 8.288C99.592 8.17067 99.7467 8.112 99.9494 8.112C100.152 8.112 100.307 8.17067 100.413 8.288C100.531 8.39467 100.589 8.55467 100.589 8.768V10.064H100.429C100.6 9.43467 100.925 8.94933 101.405 8.608C101.885 8.26667 102.477 8.08533 103.181 8.064C103.341 8.05333 103.469 8.09067 103.565 8.176C103.661 8.25067 103.715 8.384 103.725 8.576C103.736 8.75733 103.693 8.90133 103.597 9.008C103.501 9.11467 103.352 9.17867 103.149 9.2L102.893 9.232C102.168 9.296 101.608 9.53067 101.213 9.936C100.829 10.3307 100.637 10.8747 100.637 11.568V15.44C100.637 15.6533 100.579 15.8187 100.461 15.936C100.355 16.0533 100.195 16.112 99.9814 16.112Z" fill="#3A3A3A"/>
<path fill-rule="evenodd" clip-rule="evenodd" d="M1.47188 2.47188C1.77403 2.16974 2.18382 2 2.61111 2H17.3889C17.8162 2 18.226 2.16974 18.5281 2.47188C18.8303 2.77403 19 3.18382 19 3.61111V14.1667C19 14.594 18.8303 15.0038 18.5281 15.3059C18.226 15.608 17.8162 15.7778 17.3889 15.7778H4.72222C4.58961 15.7778 4.46244 15.8305 4.36867 15.9242L1 19.2929V3.61111C1 3.18382 1.16974 2.77403 1.47188 2.47188ZM2.61111 1C1.9186 1 1.25446 1.2751 0.764777 1.76478C0.275098 2.25446 0 2.9186 0 3.61111V20.5C0 20.7022 0.121821 20.8846 0.308658 20.9619C0.495495 21.0393 0.710554 20.9966 0.853553 20.8536L4.92933 16.7778H17.3889C18.0814 16.7778 18.7455 16.5027 19.2352 16.013C19.7249 15.5233 20 14.8592 20 14.1667V3.61111C20 2.9186 19.7249 2.25446 19.2352 1.76478C18.7455 1.2751 18.0814 1 17.3889 1H2.61111ZM7.89933 12.5115C8.22933 12.5702 8.56667 12.5995 8.91133 12.5995C9.35133 12.5995 9.74733 12.5482 10.0993 12.4455C10.4513 12.3428 10.752 12.1962 11.0013 12.0055C11.2507 11.8075 11.4413 11.5728 11.5733 11.3015C11.7053 11.0302 11.7713 10.7332 11.7713 10.4105C11.7713 9.87515 11.5917 9.45348 11.2323 9.14548C10.8803 8.83015 10.334 8.59548 9.59333 8.44148L8.44933 8.19948C7.958 8.10415 7.60233 7.95382 7.38233 7.74848C7.16967 7.54315 7.06333 7.26448 7.06333 6.91248C7.06333 6.61915 7.14033 6.36248 7.29433 6.14248C7.45567 5.91515 7.67567 5.74282 7.95433 5.62548C8.24033 5.50815 8.57767 5.44948 8.96633 5.44948C9.34767 5.44948 9.696 5.50082 10.0113 5.60348C10.3267 5.69882 10.631 5.85648 10.9243 6.07648C11.027 6.14248 11.1187 6.17182 11.1993 6.16448C11.2873 6.15715 11.357 6.12782 11.4083 6.07648C11.467 6.02515 11.5073 5.96282 11.5293 5.88948C11.5513 5.80882 11.5477 5.72815 11.5183 5.64748C11.489 5.55948 11.434 5.48248 11.3533 5.41648C11.0307 5.15982 10.6677 4.96915 10.2643 4.84448C9.86833 4.71248 9.43933 4.64648 8.97733 4.64648C8.55933 4.64648 8.178 4.70148 7.83333 4.81148C7.48867 4.92148 7.19167 5.07915 6.94233 5.28448C6.693 5.48248 6.49867 5.72448 6.35933 6.01048C6.22 6.28915 6.15033 6.60082 6.15033 6.94549C6.15033 7.50282 6.319 7.95015 6.65633 8.28748C7.001 8.61748 7.518 8.85582 8.20733 9.00249L9.35133 9.23348C9.894 9.34348 10.279 9.49382 10.5063 9.68448C10.741 9.86782 10.8583 10.1245 10.8583 10.4545C10.8583 10.8578 10.697 11.1842 10.3743 11.4335C10.059 11.6755 9.57133 11.7965 8.91133 11.7965C8.442 11.7965 8.02033 11.7452 7.64633 11.6425C7.27233 11.5325 6.92033 11.3602 6.59033 11.1255C6.495 11.0668 6.407 11.0412 6.32633 11.0485C6.24567 11.0558 6.176 11.0888 6.11733 11.1475C6.066 11.2062 6.02933 11.2795 6.00733 11.3675C5.99267 11.4482 6 11.5325 6.02933 11.6205C6.066 11.7012 6.12833 11.7745 6.21633 11.8405C6.44367 12.0092 6.69667 12.1485 6.97533 12.2585C7.26133 12.3685 7.56933 12.4528 7.89933 12.5115ZM14.1174 12.3795C14.4034 12.5262 14.7554 12.5995 15.1734 12.5995C15.2908 12.5995 15.4191 12.5848 15.5584 12.5555C15.7051 12.5335 15.8224 12.5078 15.9104 12.4785C15.9911 12.4492 16.0461 12.3978 16.0754 12.3245C16.1121 12.2512 16.1304 12.1705 16.1304 12.0825C16.1304 11.9578 16.1084 11.8698 16.0644 11.8185C16.0204 11.7672 15.9654 11.7452 15.8994 11.7525C15.8334 11.7525 15.7491 11.7672 15.6464 11.7965C15.5511 11.8258 15.4338 11.8405 15.2944 11.8405C14.8984 11.8405 14.6124 11.7342 14.4364 11.5215C14.2604 11.3015 14.1724 10.9825 14.1724 10.5645V7.84748H15.5584C15.6831 7.84748 15.7784 7.81815 15.8444 7.75948C15.9104 7.69348 15.9434 7.60548 15.9434 7.49548C15.9434 7.38548 15.9104 7.30115 15.8444 7.24249C15.7784 7.18382 15.6831 7.15448 15.5584 7.15448H14.1724V5.88948C14.1724 5.74282 14.1321 5.63282 14.0514 5.55948C13.9781 5.47882 13.8718 5.43848 13.7324 5.43848C13.5931 5.43848 13.4831 5.47882 13.4024 5.55948C13.3218 5.63282 13.2814 5.74282 13.2814 5.88948V7.15448H12.5444C12.4198 7.15448 12.3244 7.18382 12.2584 7.24249C12.1924 7.30115 12.1594 7.38548 12.1594 7.49548C12.1594 7.60548 12.1924 7.69348 12.2584 7.75948C12.3244 7.81815 12.4198 7.84748 12.5444 7.84748H13.2814V10.6525C13.2814 11.0705 13.3511 11.4262 13.4904 11.7195C13.6298 12.0055 13.8388 12.2255 14.1174 12.3795Z" fill="#ED7117"/>
</svg>
