<svg width="24" height="24" viewBox="0 0 24 24" fill="none" xmlns="http://www.w3.org/2000/svg">
<path d="M22.9999 15.7066V20.523C23.0036 20.8771 22.9303 21.2278 22.785 21.551C22.6396 21.8741 22.4257 22.1621 22.158 22.395C21.8902 22.628 21.575 22.8004 21.2339 22.9003C20.8929 23.0003 20.5341 23.0254 20.1824 22.9741C15.3065 22.3502 10.7776 20.128 7.30932 16.6577C3.84102 13.1873 1.63048 8.66618 1.02601 3.80654C0.97461 3.4572 0.999583 3.10091 1.09922 2.76208C1.19886 2.42324 1.37081 2.10984 1.60331 1.84334C1.83581 1.57683 2.12337 1.3635 2.44631 1.21795C2.76924 1.07241 3.11994 0.998071 3.47439 1.00004H8.2358C8.53995 0.9982 8.83401 1.10865 9.06122 1.31008C9.28843 1.51151 9.43268 1.78963 9.46614 2.09077C9.58823 3.69694 10.0052 5.26715 10.6965 6.72334C10.815 6.99912 10.8279 7.30863 10.7326 7.59322C10.6374 7.87782 10.4407 8.11774 10.1797 8.26752L9.12164 8.86804C8.96913 8.9516 8.83615 9.06643 8.73149 9.20497C8.62682 9.3435 8.55286 9.50258 8.51449 9.6717C8.47612 9.84081 8.4742 10.0161 8.50887 10.186C8.54355 10.3559 8.61402 10.5166 8.71563 10.6573C9.93284 12.4334 11.4726 13.9671 13.2556 15.1796C13.3969 15.2808 13.5582 15.351 13.7287 15.3856C13.8993 15.4201 14.0753 15.4182 14.2451 15.38C14.4149 15.3417 14.5746 15.2681 14.7136 15.1638C14.8527 15.0596 14.968 14.9271 15.0519 14.7752L15.6547 13.7212C15.8141 13.4579 16.067 13.2638 16.3633 13.1776C16.6595 13.0913 16.9775 13.1191 17.2542 13.2555C18.7161 13.944 20.2924 14.3594 21.9049 14.481C22.2072 14.5144 22.4864 14.6581 22.6886 14.8844C22.8908 15.1107 23.0017 15.4036 22.9999 15.7066Z" stroke="white" stroke-linecap="round" stroke-linejoin="round"/>
</svg>
