<?xml version="1.0" encoding="utf-8"?>
<!-- Generator: Adobe Illustrator 24.1.2, SVG Export Plug-In . SVG Version: 6.00 Build 0)  -->
<svg version="1.1" id="Слой_1" xmlns="http://www.w3.org/2000/svg" xmlns:xlink="http://www.w3.org/1999/xlink" x="0px" y="0px"
	 viewBox="0 0 46 46" style="enable-background:new 0 0 46 46;" xml:space="preserve">
<style type="text/css">
	.st0{fill:#FFFFFF;}
	.st1{fill:none;stroke:#ED7117;stroke-miterlimit:10;}
	.st2{fill:none;stroke:#ED7117;}
</style>
<rect class="st0" width="46" height="46"/>
<path class="st1" d="M28.1,10.2c-1-1.3-2.7-2.2-5-2.2c-2.4,0-4,0.8-5,2.2s-1.4,3.3-1.2,5.6c0.2,1.9,0.7,4,1.7,5.5s2.4,2.6,4.5,2.6
	s3.5-1.1,4.5-2.6c1-1.6,1.5-3.6,1.7-5.5C29.5,13.5,29.1,11.5,28.1,10.2z"/>
<path class="st2" d="M35,35.5c-0.1-1.4-0.2-2.8-0.5-4.3c0-0.1,0-0.1,0-0.2c-0.1-0.9-0.3-1.8-0.6-2.7c-0.3-1-0.8-1.8-1.4-2.3
	c-0.4-0.3-0.8-0.5-1.3-0.7c-0.2-0.1-0.4-0.1-0.6-0.2c-0.3-0.1-0.7-0.2-1-0.4l0,0l-1.1-0.5c-1.5,1.5-3.3,2.3-5.5,2.3
	c-2.1,0-4-0.8-5.5-2.3c-0.3,0.2-0.7,0.3-1.1,0.5l0,0c-0.3,0.1-0.7,0.2-1,0.4c-0.2,0.1-0.4,0.1-0.6,0.2c-0.5,0.2-1,0.4-1.3,0.7
	c-0.6,0.5-1.1,1.3-1.4,2.3c-0.3,0.9-0.5,1.9-0.6,2.7c0,0.1,0,0.1,0,0.2c-0.3,1.5-0.4,2.9-0.5,4.4c0,0.5,0.1,0.7,0.2,0.8
	c0.1,0.1,0.2,0.1,0.3,0.2c0.1,0.1,0.3,0.1,0.5,0.2h0.1l0,0c1.2,0.4,2.4,0.7,3.6,1c2.4,0.5,4.8,0.9,7.2,0.9s4.9-0.4,7.2-0.9l0,0
	c1.2-0.3,2.4-0.6,3.6-1h0.1c0.2-0.1,0.4-0.1,0.5-0.2c0.2-0.1,0.3-0.1,0.3-0.2c0.1-0.1,0.2-0.3,0.2-0.8L35,35.5z"/>
</svg>
